<mxfile host="app.diagrams.net" modified="2023-10-06T16:48:14.512Z" agent="Mozilla/5.0 (Windows NT 10.0; Win64; x64) AppleWebKit/537.36 (KHTML, like Gecko) Chrome/117.0.0.0 Safari/537.36" etag="Mz8-e5oHWRrMGIIgP0Ex" version="22.0.3" type="device">
  <diagram id="R2lEEEUBdFMjLlhIrx00" name="Page-1">
    <mxGraphModel dx="1434" dy="790" grid="1" gridSize="10" guides="1" tooltips="1" connect="1" arrows="1" fold="1" page="1" pageScale="1" pageWidth="850" pageHeight="1100" math="0" shadow="0" extFonts="Permanent Marker^https://fonts.googleapis.com/css?family=Permanent+Marker">
      <root>
        <mxCell id="0" />
        <mxCell id="1" parent="0" />
        <mxCell id="-gcsnalx-fvy34UCijWT-9" value="&lt;font style=&quot;font-size: 18px;&quot;&gt;(0:1)&lt;/font&gt;" style="text;html=1;align=center;verticalAlign=middle;resizable=0;points=[];autosize=1;strokeColor=none;fillColor=none;" parent="1" vertex="1">
          <mxGeometry x="230" y="250" width="60" height="40" as="geometry" />
        </mxCell>
        <mxCell id="-gcsnalx-fvy34UCijWT-12" value="&lt;span style=&quot;font-size: 24px;&quot;&gt;Lavado por&lt;/span&gt;" style="rhombus;whiteSpace=wrap;html=1;" parent="1" vertex="1">
          <mxGeometry x="30" y="390" width="200" height="140" as="geometry" />
        </mxCell>
        <mxCell id="-gcsnalx-fvy34UCijWT-27" value="&lt;span style=&quot;font-size: 24px;&quot;&gt;Cliente&lt;/span&gt;" style="whiteSpace=wrap;html=1;align=center;" parent="1" vertex="1">
          <mxGeometry x="650" y="132.5" width="190" height="110" as="geometry" />
        </mxCell>
        <mxCell id="-gcsnalx-fvy34UCijWT-28" value="&lt;font style=&quot;font-size: 18px;&quot;&gt;Perro&lt;/font&gt;" style="whiteSpace=wrap;html=1;align=center;" parent="1" vertex="1">
          <mxGeometry x="30" y="137.5" width="200" height="105" as="geometry" />
        </mxCell>
        <mxCell id="-gcsnalx-fvy34UCijWT-29" value="" style="edgeStyle=orthogonalEdgeStyle;rounded=0;orthogonalLoop=1;jettySize=auto;html=1;endArrow=none;endFill=0;" parent="1" target="-gcsnalx-fvy34UCijWT-27" edge="1">
          <mxGeometry relative="1" as="geometry">
            <mxPoint x="540" y="190" as="sourcePoint" />
            <Array as="points">
              <mxPoint x="630" y="190" />
              <mxPoint x="630" y="190" />
            </Array>
          </mxGeometry>
        </mxCell>
        <mxCell id="-gcsnalx-fvy34UCijWT-30" value="" style="rounded=0;orthogonalLoop=1;jettySize=auto;html=1;endArrow=none;endFill=0;" parent="1" target="-gcsnalx-fvy34UCijWT-28" edge="1">
          <mxGeometry relative="1" as="geometry">
            <mxPoint x="340" y="190" as="sourcePoint" />
          </mxGeometry>
        </mxCell>
        <mxCell id="-gcsnalx-fvy34UCijWT-31" value="&lt;font style=&quot;font-size: 18px;&quot;&gt;(1:1)&lt;/font&gt;" style="text;html=1;align=center;verticalAlign=middle;resizable=0;points=[];autosize=1;strokeColor=none;fillColor=none;" parent="1" vertex="1">
          <mxGeometry x="240" y="143" width="60" height="40" as="geometry" />
        </mxCell>
        <mxCell id="-gcsnalx-fvy34UCijWT-32" value="&lt;font style=&quot;font-size: 18px;&quot;&gt;(0:N)&lt;/font&gt;" style="text;html=1;align=center;verticalAlign=middle;resizable=0;points=[];autosize=1;strokeColor=none;fillColor=none;" parent="1" vertex="1">
          <mxGeometry x="590" y="140" width="60" height="40" as="geometry" />
        </mxCell>
        <mxCell id="-gcsnalx-fvy34UCijWT-33" value="&lt;span style=&quot;font-size: 24px;&quot;&gt;Es propiedad&amp;nbsp;&lt;/span&gt;" style="rhombus;whiteSpace=wrap;html=1;" parent="1" vertex="1">
          <mxGeometry x="340" y="120" width="200" height="140" as="geometry" />
        </mxCell>
        <mxCell id="-gcsnalx-fvy34UCijWT-38" value="&lt;font style=&quot;font-size: 18px;&quot;&gt;(0:1)&lt;/font&gt;" style="text;html=1;align=center;verticalAlign=middle;resizable=0;points=[];autosize=1;strokeColor=none;fillColor=none;" parent="1" vertex="1">
          <mxGeometry x="60" y="270" width="60" height="40" as="geometry" />
        </mxCell>
        <mxCell id="HbswxIzNJkeK2-pMgnu5-1" value="" style="endArrow=none;html=1;rounded=0;entryX=0.5;entryY=1;entryDx=0;entryDy=0;exitX=0.5;exitY=0;exitDx=0;exitDy=0;" parent="1" source="-gcsnalx-fvy34UCijWT-12" target="-gcsnalx-fvy34UCijWT-28" edge="1">
          <mxGeometry width="50" height="50" relative="1" as="geometry">
            <mxPoint x="440" y="315" as="sourcePoint" />
            <mxPoint x="490" y="265" as="targetPoint" />
          </mxGeometry>
        </mxCell>
        <mxCell id="-s0iNOd5FK__5MphaZw7-1" value="" style="endArrow=none;html=1;rounded=0;entryX=0.5;entryY=1;entryDx=0;entryDy=0;exitX=0.5;exitY=0;exitDx=0;exitDy=0;" edge="1" parent="1">
          <mxGeometry width="50" height="50" relative="1" as="geometry">
            <mxPoint x="129.5" y="665" as="sourcePoint" />
            <mxPoint x="129.5" y="530" as="targetPoint" />
          </mxGeometry>
        </mxCell>
        <mxCell id="-s0iNOd5FK__5MphaZw7-2" value="" style="endArrow=none;html=1;rounded=0;entryX=-0.005;entryY=0.414;entryDx=0;entryDy=0;entryPerimeter=0;" edge="1" parent="1" target="-s0iNOd5FK__5MphaZw7-4">
          <mxGeometry width="50" height="50" relative="1" as="geometry">
            <mxPoint x="130" y="660" as="sourcePoint" />
            <mxPoint x="220" y="660" as="targetPoint" />
          </mxGeometry>
        </mxCell>
        <mxCell id="-s0iNOd5FK__5MphaZw7-4" value="&lt;font style=&quot;font-size: 18px;&quot;&gt;Empleado&lt;/font&gt;" style="whiteSpace=wrap;html=1;align=center;" vertex="1" parent="1">
          <mxGeometry x="40" y="640" width="200" height="70" as="geometry" />
        </mxCell>
        <mxCell id="-s0iNOd5FK__5MphaZw7-19" value="" style="endArrow=none;html=1;rounded=0;entryX=0.5;entryY=0;entryDx=0;entryDy=0;" edge="1" parent="1" target="-s0iNOd5FK__5MphaZw7-25">
          <mxGeometry width="50" height="50" relative="1" as="geometry">
            <mxPoint x="250" y="590" as="sourcePoint" />
            <mxPoint x="350" y="560" as="targetPoint" />
          </mxGeometry>
        </mxCell>
        <mxCell id="-s0iNOd5FK__5MphaZw7-25" value="&lt;span style=&quot;font-size: 24px;&quot;&gt;Sustituye&lt;/span&gt;" style="rhombus;whiteSpace=wrap;html=1;" vertex="1" parent="1">
          <mxGeometry x="340" y="600" width="200" height="140" as="geometry" />
        </mxCell>
        <mxCell id="-s0iNOd5FK__5MphaZw7-26" value="" style="endArrow=none;html=1;rounded=0;exitX=1;exitY=0;exitDx=0;exitDy=0;" edge="1" parent="1" source="-s0iNOd5FK__5MphaZw7-4">
          <mxGeometry width="50" height="50" relative="1" as="geometry">
            <mxPoint x="220" y="620" as="sourcePoint" />
            <mxPoint x="250" y="590" as="targetPoint" />
          </mxGeometry>
        </mxCell>
        <mxCell id="-s0iNOd5FK__5MphaZw7-27" value="" style="endArrow=none;html=1;rounded=0;exitX=1;exitY=0.5;exitDx=0;exitDy=0;entryX=0;entryY=0.5;entryDx=0;entryDy=0;" edge="1" parent="1" source="-s0iNOd5FK__5MphaZw7-4" target="-s0iNOd5FK__5MphaZw7-25">
          <mxGeometry width="50" height="50" relative="1" as="geometry">
            <mxPoint x="260" y="700" as="sourcePoint" />
            <mxPoint x="350" y="700" as="targetPoint" />
          </mxGeometry>
        </mxCell>
        <mxCell id="-s0iNOd5FK__5MphaZw7-28" value="&lt;font style=&quot;font-size: 24px;&quot;&gt;Perro&lt;/font&gt;" style="rounded=0;whiteSpace=wrap;html=1;" vertex="1" parent="1">
          <mxGeometry x="50" y="150" width="160" height="80" as="geometry" />
        </mxCell>
      </root>
    </mxGraphModel>
  </diagram>
</mxfile>
